<?xml version="1.0" encoding="UTF-8"?>
<svg id="Layer_1" xmlns="http://www.w3.org/2000/svg" viewBox="0 0 125 30">
  <defs>
    <style>
      .cls-1 {
        fill: none;
        stroke: #fff;
        stroke-miterlimit: 10;
      }

      .cls-2 {
        fill: #fff;
      }

      .cls-3 {
        opacity: .2;
      }
    </style>
  </defs>
  <path class="cls-2" d="M2.24,28.22V2.05h11.2l2.35,8.18c.2.7.43,1.63.69,2.79.26,1.16.51,2.4.76,3.73.25,1.33.48,2.6.69,3.83.21,1.22.38,2.26.49,3.1h-1.32c.12-.84.28-1.88.48-3.1.21-1.22.43-2.5.69-3.83.25-1.33.5-2.57.75-3.73s.48-2.09.68-2.79l2.32-8.18h11.22v26.16h-7.16v-10.11c0-.6.01-1.39.04-2.38.03-.99.06-2.07.1-3.26.04-1.18.07-2.37.1-3.56.03-1.19.04-2.29.04-3.3h.4c-.21,1.11-.45,2.27-.72,3.47-.27,1.2-.55,2.37-.83,3.51-.28,1.14-.55,2.19-.81,3.14-.26.95-.48,1.75-.67,2.38l-3.04,10.11h-5.9l-3.09-10.11c-.19-.63-.41-1.43-.68-2.38-.26-.95-.54-2-.83-3.14-.29-1.14-.58-2.31-.85-3.51-.28-1.2-.52-2.36-.75-3.47h.51c0,1.01.01,2.11.04,3.3s.06,2.38.1,3.56c.04,1.18.07,2.27.1,3.26.03.99.04,1.78.04,2.38v10.11H2.24Z"/>
  <rect class="cls-1" x=".53" y=".57" width="34.41" height="28.9"/>
  <g>
    <path class="cls-2" d="M47.9,29.77c-2.19,0-4.05-.45-5.57-1.34-1.53-.89-2.61-2.21-3.25-3.96-.64-1.75-.75-3.9-.33-6.46l.1-.58c.21-1.21.52-2.47.94-3.77.42-1.31.99-2.57,1.73-3.81.73-1.23,1.66-2.37,2.79-3.4s2.5-1.89,4.11-2.57c1.61-.68,3.51-1.11,5.7-1.27,1-.08,1.74-.19,2.22-.33.48-.14.8-.35.97-.62.17-.27.3-.63.39-1.08h5.8c-.32,1.83-.87,3.24-1.63,4.24s-1.8,1.72-3.1,2.16-2.92.73-4.85.89c-1.18.09-2.24.28-3.18.57-.93.29-1.76.71-2.46,1.27-.71.56-1.32,1.29-1.84,2.18-.52.89-.95,2-1.29,3.31h.17c.5-.86,1.21-1.69,2.13-2.48.91-.79,1.97-1.44,3.16-1.94,1.19-.5,2.44-.75,3.74-.75,1.52,0,2.82.37,3.9,1.11,1.08.74,1.86,1.79,2.35,3.14s.57,2.96.26,4.81c-.35,2.08-1.12,3.93-2.32,5.54-1.2,1.61-2.71,2.87-4.53,3.78s-3.85,1.37-6.08,1.37ZM48.86,24.07c.76,0,1.44-.18,2.03-.53s1.09-.88,1.49-1.58c.4-.7.68-1.57.85-2.59.18-1.03.19-1.89.02-2.59-.17-.7-.49-1.23-.97-1.58-.48-.35-1.1-.53-1.85-.53s-1.43.18-2.02.53-1.08.88-1.47,1.58c-.39.7-.68,1.57-.86,2.59-.17,1.03-.17,1.89,0,2.59.16.7.48,1.23.95,1.58s1.08.53,1.84.53Z"/>
    <path class="cls-2" d="M59.25,29.31l.92-6.84h.59c.4,0,.78-.12,1.12-.37s.66-.63.94-1.16.55-1.19.78-2.02c.23-.82.44-1.8.62-2.93l1.94-12h17.83l-3.39,25.32h-7.37l2.47-18.53h-3.41l-1.03,6.12c-.55,3.23-1.31,5.75-2.28,7.54-.97,1.8-2.08,3.06-3.34,3.78s-2.58,1.09-3.99,1.09h-2.42Z"/>
    <path class="cls-2" d="M92.83,29.7c-2.13,0-3.92-.44-5.39-1.32s-2.58-2.11-3.34-3.7c-.76-1.59-1.14-3.45-1.14-5.58s.28-3.94.85-5.76c.57-1.81,1.39-3.43,2.48-4.83,1.09-1.41,2.42-2.51,4-3.31,1.58-.8,3.38-1.21,5.42-1.21s3.9.44,5.36,1.32c1.46.88,2.57,2.11,3.33,3.7.76,1.59,1.14,3.45,1.14,5.58,0,2.01-.28,3.92-.83,5.73-.55,1.82-1.37,3.43-2.45,4.83s-2.41,2.51-3.99,3.33c-1.58.81-3.39,1.22-5.44,1.22ZM93.14,23c.86,0,1.59-.31,2.18-.94.59-.62,1.06-1.41,1.42-2.35.35-.94.61-1.92.76-2.92s.23-1.88.23-2.62-.1-1.42-.29-1.93c-.19-.51-.46-.9-.81-1.16-.35-.26-.76-.39-1.24-.39-.88,0-1.61.31-2.21.92-.6.61-1.08,1.38-1.43,2.31-.35.93-.61,1.89-.76,2.88-.15.99-.23,1.86-.23,2.62,0,1.16.22,2.05.65,2.67.43.62,1.01.93,1.73.93Z"/>
    <path class="cls-2" d="M123.43,3.99l-.97,6.79h-8.11l-2.61,18.53h-7.76l3.57-25.32h15.88Z"/>
  </g>
  <g class="cls-3">
    <path d="M38.07,28.98L40.67-.55l7.93-.12c1.37-.02,2.53.4,3.47,1.24.95.85,1.64,2.06,2.08,3.62.43,1.56.56,3.4.37,5.5-.19,2.11-.64,3.94-1.36,5.49-.72,1.55-1.64,2.75-2.77,3.6-1.13.86-2.39,1.29-3.79,1.31l-4.74.07.55-6.22,3.73-.06c.59,0,1.11-.18,1.56-.53.45-.34.81-.82,1.09-1.43s.45-1.33.52-2.17c.08-.86.03-1.59-.14-2.18-.17-.6-.45-1.05-.84-1.36-.39-.31-.88-.46-1.48-.45l-1.75.03-2.03,23.11-4.99.07Z"/>
    <path d="M51.76,28.78L60.32-.84l6.82-.1,3.59,29.44-5.66.08-1.13-11.42c-.24-2.48-.45-5.05-.62-7.72-.17-2.67-.32-5.32-.45-7.96l1.14-.02c-.58,2.65-1.16,5.31-1.75,7.99-.59,2.68-1.22,5.27-1.88,7.76l-3.04,11.49-5.58.08ZM56.68,23.04l.53-5.99,10.13-.15-.53,5.99-10.13.15Z"/>
    <path d="M72.59,28.47l2.81-31.97,5.4-.08-1.07,12.19,1.87-.03,6.01-12.26,6.34-.09-8.17,15.72,5.7,16.24-6.34.09-4.25-12.84-1.77.03-1.13,12.92-5.4.08Z"/>
    <path d="M93.38,28.16l2.81-31.97,14.36-.21-.61,6.99-8.96.13-.48,5.41,8.21-.12-.6,6.82-8.21.12-.51,5.75,8.91-.13-.61,6.99-14.31.21Z"/>
    <path d="M112.04,5.44l.67-6.32,17.3-.37-.67,6.32-5.95.13-2.4,22.56-5.4.12,2.4-22.56-5.95.13Z"/>
  </g>
</svg>