<?xml version="1.0" encoding="UTF-8"?>
<svg id="Layer_1" xmlns="http://www.w3.org/2000/svg" viewBox="0 0 125 30">
  <defs>
    <style>
      .cls-1 {
        letter-spacing: 0em;
      }

      .cls-1, .cls-2, .cls-3 {
        font-size: 67.44px;
      }

      .cls-4 {
        fill: none;
        stroke: #fff;
        stroke-miterlimit: 10;
      }

      .cls-5 {
        font-family: Inter-Black, Inter;
        font-variation-settings: 'opsz' 14, 'wght' 900;
        font-weight: 800;
        opacity: .2;
      }

      .cls-6 {
        font-size: 73px;
      }

      .cls-7 {
        fill: #fff;
      }

      .cls-3 {
        letter-spacing: -.09em;
      }
    </style>
  </defs>
  <path class="cls-7" d="M2.24,28.22V2.05h11.2l2.35,8.18c.2.7.43,1.63.69,2.79.26,1.16.51,2.4.76,3.73.25,1.33.48,2.6.69,3.83.21,1.22.38,2.26.49,3.1h-1.32c.12-.84.28-1.88.48-3.1.21-1.22.43-2.5.69-3.83.25-1.33.5-2.57.75-3.73s.48-2.09.68-2.79l2.32-8.18h11.22v26.16h-7.16v-10.11c0-.6.01-1.39.04-2.38.03-.99.06-2.07.1-3.26.04-1.18.07-2.37.1-3.56.03-1.19.04-2.29.04-3.3h.4c-.21,1.11-.45,2.27-.72,3.47-.27,1.2-.55,2.37-.83,3.51-.28,1.14-.55,2.19-.81,3.14-.26.95-.48,1.75-.67,2.38l-3.04,10.11h-5.9l-3.09-10.11c-.19-.63-.41-1.43-.68-2.38-.26-.95-.54-2-.83-3.14-.29-1.14-.58-2.31-.85-3.51-.28-1.2-.52-2.36-.75-3.47h.51c0,1.01.01,2.11.04,3.3s.06,2.38.1,3.56c.04,1.18.07,2.27.1,3.26.03.99.04,1.78.04,2.38v10.11H2.24Z"/>
  <rect class="cls-4" x=".53" y=".57" width="34.41" height="28.9"/>
  <g>
    <path class="cls-7" d="M45.66,29.77c-2.25,0-4.17-.46-5.74-1.37-1.57-.91-2.69-2.26-3.35-4.04-.66-1.78-.78-3.98-.34-6.58l.1-.59c.21-1.23.53-2.51.96-3.84.43-1.33,1.02-2.62,1.78-3.88.76-1.26,1.71-2.41,2.87-3.47s2.57-1.93,4.23-2.62c1.66-.69,3.61-1.13,5.87-1.3,1.03-.08,1.8-.19,2.29-.33.49-.14.82-.35.99-.63.17-.27.31-.64.4-1.1h5.97c-.33,1.86-.89,3.3-1.68,4.32s-1.85,1.76-3.19,2.2-3,.75-4.99.9c-1.22.09-2.31.29-3.27.58-.96.29-1.81.73-2.54,1.3-.73.57-1.36,1.31-1.89,2.22-.53.91-.98,2.03-1.33,3.37h.18c.52-.88,1.25-1.72,2.19-2.53.94-.81,2.03-1.46,3.25-1.98,1.23-.51,2.51-.77,3.85-.77,1.56,0,2.9.38,4.02,1.13,1.11.75,1.92,1.82,2.42,3.2s.59,3.02.27,4.9c-.36,2.12-1.15,4-2.39,5.64-1.23,1.64-2.79,2.92-4.67,3.85s-3.96,1.4-6.26,1.4ZM46.66,23.96c.78,0,1.48-.18,2.09-.54s1.12-.9,1.53-1.61c.41-.71.7-1.6.88-2.64.19-1.05.19-1.93.02-2.64-.17-.71-.5-1.25-.99-1.61-.49-.36-1.13-.54-1.91-.54s-1.47.18-2.08.54-1.11.9-1.51,1.61c-.41.71-.7,1.6-.89,2.64-.17,1.05-.18,1.93,0,2.64.17.71.49,1.25.97,1.61s1.12.54,1.9.54Z"/>
    <path class="cls-7" d="M56.94,29.3l.96-6.97h.61c.42,0,.81-.13,1.17-.38s.69-.65.99-1.18.57-1.22.82-2.05c.24-.84.46-1.83.65-2.99l2.03-12.23h18.66l-3.55,25.81h-7.71l2.59-18.88h-3.57l-1.07,6.23c-.58,3.29-1.37,5.85-2.39,7.69-1.02,1.83-2.18,3.12-3.49,3.85s-2.7,1.11-4.17,1.11h-2.53Z"/>
    <path class="cls-7" d="M91.44,29.7c-2.19,0-4.04-.45-5.55-1.34s-2.66-2.15-3.44-3.77c-.78-1.62-1.17-3.52-1.17-5.69s.29-4.02.88-5.87c.58-1.85,1.43-3.49,2.56-4.92,1.12-1.43,2.49-2.56,4.12-3.38,1.62-.82,3.48-1.23,5.58-1.23s4.01.45,5.52,1.34c1.51.89,2.65,2.15,3.43,3.77.78,1.62,1.17,3.52,1.17,5.69,0,2.05-.29,3.99-.86,5.84-.57,1.85-1.41,3.49-2.53,4.92s-2.48,2.56-4.11,3.39c-1.62.83-3.49,1.24-5.6,1.24ZM91.76,22.87c.89,0,1.64-.32,2.25-.96.61-.64,1.1-1.44,1.46-2.4.36-.96.63-1.96.79-2.98s.24-1.91.24-2.67-.1-1.44-.3-1.97c-.2-.52-.48-.92-.83-1.18-.36-.26-.78-.4-1.27-.4-.9,0-1.66.31-2.28.93-.62.62-1.11,1.41-1.47,2.35-.36.95-.63,1.93-.79,2.93-.16,1.01-.24,1.9-.24,2.67,0,1.18.22,2.09.67,2.72.44.63,1.04.94,1.78.94Z"/>
    <path class="cls-7" d="M123.02,3.5l-.99,6.92h-8.35l-2.69,18.88h-8l3.68-25.81h16.35Z"/>
  </g>
  <text id="_x28__x21__x21__x21__x21__x29_" class="cls-5" transform="translate(33.25 39.06) rotate(6.24) scale(.4 1)"><tspan class="cls-3" x="0" y="0">Р</tspan><tspan class="cls-1" x="38.13" y="0">А</tspan><tspan class="cls-6" x="91.73" y="0">КЕТ</tspan><tspan class="cls-2" x="242.01" y="0">ПЛЕЙСЫ</tspan></text>
</svg>