<?xml version="1.0" encoding="UTF-8"?>
<svg id="Layer_1" xmlns="http://www.w3.org/2000/svg" viewBox="0 0 125 50">
  <defs>
    <style>
      .cls-1 {
        fill: #fff;
      }

      .cls-2 {
        fill: none;
        stroke: #fff;
        stroke-miterlimit: 10;
        stroke-width: 2px;
      }
    </style>
  </defs>
  <rect class="cls-2" x="1.36" y="1.28" width="52.01" height="47.21" rx="4.45" ry="4.45"/>
  <path class="cls-1" d="M6.11,44.02V7.94h15.45l3.24,11.28c.28.97.59,2.25.95,3.85.35,1.6.71,3.31,1.05,5.15.35,1.83.67,3.59.96,5.28.29,1.69.52,3.11.68,4.27h-1.82c.16-1.16.38-2.59.66-4.27.28-1.69.6-3.45.95-5.28.35-1.83.69-3.55,1.04-5.15s.66-2.88.93-3.85l3.2-11.28h15.47v36.08h-9.88v-13.95c0-.82.02-1.92.06-3.28.04-1.36.09-2.86.13-4.49.05-1.63.09-3.27.13-4.92.04-1.65.06-3.16.06-4.55h.56c-.29,1.53-.62,3.13-.99,4.78-.37,1.65-.75,3.27-1.14,4.84-.39,1.57-.76,3.02-1.11,4.33-.36,1.32-.66,2.41-.92,3.28l-4.19,13.95h-8.14l-4.26-13.95c-.26-.87-.57-1.97-.93-3.28-.36-1.32-.75-2.76-1.15-4.33-.4-1.57-.8-3.19-1.17-4.84-.38-1.66-.72-3.25-1.03-4.78h.7c0,1.39.02,2.91.06,4.55s.09,3.29.13,4.92c.05,1.63.09,3.13.13,4.49.04,1.36.06,2.46.06,3.28v13.95H6.11Z"/>
  <g>
    <path class="cls-1" d="M59.14,49.76v-17.84h12.65v3.83h-7.81v3.3h3.57c1.18,0,2.2.19,3.06.57.86.38,1.52.94,1.99,1.69.47.75.7,1.68.7,2.8s-.23,2.15-.7,2.99c-.47.85-1.13,1.5-1.99,1.96-.86.46-1.88.69-3.06.69h-8.41ZM63.98,46.12h2.63c.61,0,1.1-.18,1.48-.55.38-.37.57-.82.57-1.35s-.19-.99-.57-1.35c-.38-.37-.88-.55-1.48-.55h-2.63v3.81Z"/>
    <path class="cls-1" d="M74.54,49.76v-3.9h.48c.62,0,1.09-.2,1.41-.6.32-.4.56-1.05.71-1.96.16-.91.29-2.12.41-3.65l.63-7.74h12.94v17.84h-4.84v-13.94h-3.74l-.51,5.77c-.15,1.7-.42,3.09-.8,4.16-.38,1.07-.87,1.9-1.46,2.48-.59.58-1.29.98-2.09,1.2-.8.22-1.69.33-2.68.33h-.48Z"/>
    <path class="cls-1" d="M101.79,50c-1.62,0-3.09-.35-4.4-1.05-1.31-.7-2.35-1.73-3.12-3.1-.77-1.36-1.15-3.03-1.15-5s.38-3.66,1.15-5.03,1.81-2.4,3.12-3.1c1.31-.7,2.78-1.05,4.4-1.05s3.09.35,4.39,1.05c1.31.7,2.35,1.73,3.12,3.1.77,1.37,1.16,3.04,1.16,5.03s-.39,3.65-1.16,5.01c-.77,1.36-1.81,2.39-3.12,3.09-1.31.7-2.77,1.05-4.39,1.05ZM101.79,45.78c.81,0,1.48-.19,2.03-.57.55-.38.96-.94,1.24-1.67.28-.73.42-1.63.42-2.69s-.14-1.97-.42-2.71c-.28-.74-.69-1.3-1.24-1.68-.55-.38-1.22-.57-2.03-.57s-1.47.19-2.02.57c-.55.38-.96.94-1.25,1.68-.28.74-.43,1.64-.43,2.71s.14,1.96.43,2.69c.28.73.7,1.29,1.25,1.67.55.38,1.22.57,2.02.57Z"/>
    <path class="cls-1" d="M125,31.92v3.9h-7.71v13.94h-4.84v-17.84h12.55Z"/>
  </g>
</svg>