<?xml version="1.0" encoding="UTF-8"?>
<svg id="Layer_1" xmlns="http://www.w3.org/2000/svg" viewBox="0 0 125 30">
  <defs>
    <style>
      .cls-1 {
        fill: #fff;
      }

      .cls-2 {
        fill: none;
        stroke: #fff;
        stroke-miterlimit: 10;
        stroke-width: 2px;
      }
    </style>
  </defs>
  <path class="cls-1" d="M0,30V.06h12.82l2.69,9.36c.23.8.49,1.87.78,3.19.29,1.33.59,2.75.87,4.27.29,1.52.55,2.98.79,4.38.24,1.4.43,2.58.56,3.55h-1.51c.13-.96.32-2.15.55-3.55.23-1.4.5-2.86.78-4.38.29-1.52.58-2.94.86-4.27s.55-2.39.77-3.19L22.65.06h12.84v29.94h-8.2v-11.57c0-.68.02-1.59.05-2.72.03-1.13.07-2.37.11-3.73.04-1.35.08-2.71.11-4.08.03-1.37.05-2.62.05-3.78h.46c-.24,1.27-.51,2.6-.82,3.97-.31,1.37-.62,2.71-.95,4.02-.32,1.31-.63,2.5-.92,3.6-.3,1.09-.55,2-.77,2.72l-3.48,11.57h-6.75l-3.54-11.57c-.21-.72-.47-1.63-.77-2.72-.3-1.09-.62-2.29-.95-3.6-.33-1.31-.66-2.65-.97-4.02-.32-1.37-.6-2.7-.85-3.97h.58c0,1.15.02,2.41.05,3.78s.07,2.73.11,4.08c.04,1.35.08,2.6.11,3.73.03,1.13.05,2.04.05,2.72v11.57H0Z"/>
  <g>
    <path class="cls-1" d="M40.47,29.7V5.9h16.23v5.11h-10.02v4.41h4.58c1.52,0,2.83.25,3.93.76,1.1.51,1.95,1.26,2.55,2.26.6,1,.9,2.25.9,3.74s-.3,2.86-.9,3.99c-.6,1.13-1.45,2-2.55,2.61-1.1.61-2.41.92-3.93.92h-10.79ZM46.68,24.84h3.38c.78,0,1.41-.24,1.91-.73.49-.49.74-1.09.74-1.8s-.25-1.31-.74-1.8c-.49-.49-1.13-.73-1.91-.73h-3.38v5.08Z"/>
    <path class="cls-1" d="M60.24,29.7v-5.21h.61c.8,0,1.4-.27,1.81-.8.41-.53.71-1.4.91-2.61.2-1.21.38-2.83.53-4.86l.81-10.32h16.61v23.8h-6.21V11.11h-4.79l-.66,7.7c-.2,2.27-.54,4.12-1.02,5.54-.49,1.43-1.11,2.53-1.87,3.31-.76.78-1.66,1.31-2.68,1.6-1.02.29-2.17.44-3.44.44h-.61Z"/>
    <path class="cls-1" d="M95.22,30.02c-2.08,0-3.96-.47-5.65-1.41-1.69-.94-3.02-2.31-4-4.13-.98-1.82-1.48-4.04-1.48-6.67s.49-4.89,1.48-6.71,2.32-3.2,4-4.13c1.69-.93,3.57-1.4,5.65-1.4s3.96.47,5.64,1.4c1.68.93,3.01,2.31,4,4.13.99,1.82,1.48,4.06,1.48,6.71s-.49,4.87-1.48,6.68c-.99,1.82-2.32,3.19-4,4.12-1.68.93-3.56,1.4-5.64,1.4ZM95.22,24.4c1.04,0,1.9-.25,2.61-.76.7-.51,1.23-1.25,1.59-2.23.36-.98.54-2.18.54-3.59s-.18-2.63-.54-3.62c-.36-.99-.89-1.73-1.59-2.24-.7-.51-1.57-.76-2.61-.76s-1.89.25-2.59.76c-.7.51-1.24,1.25-1.6,2.24-.36.98-.55,2.19-.55,3.62s.18,2.61.55,3.59c.36.98.9,1.72,1.6,2.23.7.51,1.57.76,2.59.76Z"/>
    <path class="cls-1" d="M125,5.9v5.21h-9.9v18.59h-6.21V5.9h16.11Z"/>
  </g>
  <rect class="cls-2" x="82.35" y="-40.94" width="0" height="88.75" transform="translate(85.85 -78.92) rotate(90.05)"/>
  <line class="cls-2" x1="37.99" y1="-.02" x2="37.99" y2="30.02"/>
  <line class="cls-2" x1="125.69" y1="3.43" x2="37.24" y2="3.43"/>
</svg>